<svg width="292" height="180" xmlns="http://www.w3.org/2000/svg" version="1.0"><defs><clipPath id="b"><path d="M196.421 138.5h7.828v39.125h-7.828V138.5zm0 0"/></clipPath><clipPath id="a"><path d="M274 61.719h2V65h-2v-3.281zm0 0"/></clipPath></defs><g stroke="null"><g clip-path="url(#a)"><path fill="#F4E8DC" d="m245.468 33.972.267-3.058.794.176c-.39.949-.781 1.898-1.162 2.859l.101.023zm0 0"/></g><path fill="#CF6F64" d="M0 0h292.087v180H0V0z"/><path fill="#F4E8DC" d="M281.095 69.516c-6.562 2.605-13.21 5.136-19.683 8.007-11.613 5.172-23.143 10.547-34.67 15.907-1.413.66-2.527 1.937-3.956 2.632a29.44 29.354 0 0 1-4.56 1.352c-.533-4.387 2.59-5.754 4.814-6.918 4.576-2.375 9.528-4.008 14.332-5.969 5.74-2.34 11.378-4.828 17.231-7.004 5.85-2.175 11.448-3.921 17.187-5.843 2.998-1.012 5.99-1.973 9-2.961l.305.797zM245.388 3.922c-1.441 3.098-2.378 5.476-3.616 7.676-7.988 14.113-14.234 29.086-20.918 43.793-2.53 5.617-5.829 10.914-8.85 16.351a7.436 7.436 0 0 1-1.261 1.266c-.306-6.653 26.806-60.89 34.645-69.086zm43.855 96.16c-8.187.379-16.43.52-24.556 1.266-12.513 1.05-24.988 2.527-37.49 3.793-1.135.113-2.287.328-3.435.328-1.669 0-2.844-.719-2.743-2.528.086-1.656 1.262-2.062 2.703-2.113 5.462-.187 10.935-.48 16.431-.683 8.217-.301 16.432-.668 24.66-.82 8.227-.153 16.329 0 24.498 0l-.068.757zm-5.167 35.965c-2.01-.77-3.98-1.617-6.018-2.29-15.926-5.245-31.852-10.53-48.345-13.769a34.88 34.777 0 0 0-6.826-.328c-2.616 0-5.053-1.457-5.053-3.137 0-1.683 2.147-2.91 4.917-2.351 3.373.668 6.633 1.91 9.96 2.883 5.825 1.707 11.714 3.199 17.453 5.132 6.573 2.215 13.018 4.833 19.53 7.223 3.789 1.39 7.581 2.656 11.373 4.059a30.51 30.419 0 0 1 3.362 1.668l-.353.91zm-21.88 23.813c-5.258-4.02-10.387-8.192-15.785-12.024-8.24-5.844-16.557-11.598-25.051-17.063-2.708-1.742-6.04-2.527-9.152-3.59-2.061-.706-3.161-2.046-2.618-3.656.546-1.605 2.136-2.007 4.02-.972 3.652 1.984 7.181 4.222 10.743 6.324a59.624 59.448 0 0 1 5.524 3.402c6.535 5.059 12.98 10.117 19.464 15.176 2.833 2.211 5.728 4.375 8.459 6.727 1.782 1.543 3.286 3.402 4.916 5.058l-.52.618zm-43.038-78.887c1.328-2.817 3.793-4.575 6.32-6.32 8.56-5.895 17.09-11.852 25.861-17.415a195.041 194.465 0 0 1 21.7-11.785c-.932.668-1.817 1.414-2.793 2.024-14.508 9.039-28.74 18.46-41.709 29.601a40.747 40.627 0 0 1-5.802 3.895c-.983.43-2.006.71-3.071.847l-.506-.847zm0 0"/><g clip-path="url(#b)"><path fill="#F4E8DC" d="M198.672 139.375c.4-.008.787.066 1.155.219a2.919 2.91 0 0 1 1.803 2.816c1.062 11.05 2.116 22.102 3.158 33.145a2.646 2.638 0 0 1-1 2.164 28.09 28.008 0 0 1-1.01-3.352c-1.352-8.12-2.692-16.25-4.094-24.355-.29-1.696-.874-3.34-1.163-5.059-.314-1.95-.836-4.012 1.151-5.578zm0 0"/></g><path fill="#F4E8DC" d="M206.355 21.969c.325.664.513 1.363.568 2.097-1.501 13.43-3.084 26.899-4.662 40.356a6.896 6.876 0 0 1-.874 1.617c-.604-1.023-1.364-1.73-1.426-2.527a28.759 28.674 0 0 1-.09-6.895c1.747-10.937 3.655-21.879 5.586-32.804.24-.66.572-1.266 1-1.82l-.102-.024zm30.5 145.304c-5.751-6.035-11.378-12.117-17.277-18.058-2.935-2.985-6.195-5.64-9.228-8.524-1.719-1.644-3.854-3.074-4.16-6.086 3.49-.148 5.638 2.278 7.295 4.2 5.207 6.07 11.702 11.09 15.432 18.453.874 1.719 2.743 2.933 4.106 4.41 1.367 1.48 2.985 3.352 4.479 5.059l-.647.546zm0 0"/><path d="M74.215 81.161c-.086-.953-.87-1.559-1.822-1.473-6.252.782-12.16 1.907-17.63 3.465 2.084-9.175 4.082-17.75 5.817-24.847 2.955-12.297 2.434-18.88-1.735-20.176-5.038-1.559-11.898 7.36-14.589 14.46-2.955 8.052-1.305 14.372 4.427 16.884.87.433 1.825 0 2.17-.782.435-.863 0-1.816-.78-2.25-5.56-2.425-3.996-9.004-2.605-12.726 2.779-7.45 8.423-12.989 10.421-12.383.87.258 2.433 3.723-.607 16.191a2727.043 2718.99 0 0 0-6.253 26.754c-7.901 2.598-14.938 6.149-21.015 10.567-9.465 6.84-16.502 15.757-20.756 26.32-7.73 18.96-4.776 39.398 2.433 48.14 3.385 4.07 7.294 6.15 11.287 6.15.783 0 1.649-.087 2.519-.259 6.08-1.472 10.77-8.402 13.113-19.398 1.65-7.617 8.686-40.176 15.283-69.008 5.56-1.645 11.812-2.945 18.845-3.809.956-.086 1.65-.867 1.477-1.82zm-38.817 73.945c-2.085 9.7-5.905 15.672-10.771 16.883-3.385.781-7.118-.949-10.33-4.762-8.338-10.128-7.473-31.167-2-44.851 4.95-12.035 15.371-26.406 37.862-34.375-6.425 28.316-13.199 59.66-14.761 67.105zm79.025-52.644c-.78-.434-1.821-.172-2.256.605-8.252 13.164-15.197 19.051-16.675 18.532 0 0-1.735-.954-.086-10.91.607-3.38.866-5.282-.783-5.977-1.564-.606-2.52.695-4.341 3.293-1.478 2.078-3.475 4.847-5.647 6.754-.258.172-1.213 1.039-1.649.691-1.304-1.039-1.562-6.668 1.478-11.863.521-.777.172-1.817-.608-2.336-.782-.434-1.825-.176-2.26.605-3.471 6.063-3.82 13.594-.78 16.106.78.691 2.95 1.906 5.99-.606 1.999-1.734 3.734-3.984 5.126-5.89-1.216 8.054-.522 12.125 2.346 13.25.43.172.865.172 1.213.172 6.6 0 17.282-16.625 19.453-20.086.521-.782.262-1.82-.522-2.34h.001zm43.164-.606a1.637 1.632 0 0 0-2.261.692c-2.084 3.55-7.554 13.164-10.68 12.816-.607-.086-2.344-.953-4.083-7.015-1.214-4.243-2.864-8.223-6.077-8.399-2.347-.172-4.951 1.645-8.948 9.094 1.043-3.723 2.174-7.45 3.041-10.477.348-1.125.607-2.078.87-3.03.258-.868-.263-1.821-1.129-2.079-.87-.262-1.825.258-2.084 1.21-.263.868-.521 1.907-.87 2.946-2.256 7.707-5.646 19.395-6.512 26.496-.086.778.436 1.559 1.215 1.73.172.087.263.087.435.087.693 0 1.3-.434 1.564-1.04 8.16-20.261 11.464-21.644 12.243-21.644.175 0 1.39.344 3.039 6.059 1.736 5.976 3.997 9.008 6.947 9.351 4.431.52 8.423-4.933 13.896-14.46.522-.864.173-1.817-.606-2.337zm37.167 0c-.78-.52-1.822-.347-2.343.434-6.515 9.09-11.812 14.805-17.023 18.527-2.605 1.82-5.125 2.164-6.774.953-1.042-.777-4.254-4.242-.521-16.363 8.424-6.926 13.027-13.508 11.813-16.972a2.844 2.836 0 0 0-2.606-1.73c-3.475.085-8.772 6.062-12.246 17.23-4.256 13.765-.78 18.789 1.649 20.52 1.218.952 2.605 1.386 4.168 1.386 1.998 0 4.258-.781 6.429-2.34 5.556-3.98 11.028-9.867 17.802-19.309.522-.777.345-1.816-.348-2.336zm-18.151-11.515c-.345 1.386-1.822 4.156-5.905 8.312 2.257-5.023 4.69-7.445 5.905-8.312zM80.89 154.773h4.451c.783 0 1.445-.102 1.99-.313.54-.207.979-.472 1.316-.796.333-.332.572-.707.722-1.125a3.82 3.82 0 0 0 .219-1.266c0-.664-.15-1.195-.44-1.594a2.836 2.828 0 0 0-1.033-.922 3.972 3.96 0 0 0-1.238-.437 9.473 9.445 0 0 0-1.035-.125v-.063c.416 0 .807-.078 1.175-.234.365-.164.682-.375.956-.625.283-.25.506-.54.674-.875.165-.344.25-.703.25-1.078 0-.332-.073-.664-.218-1a2.706 2.698 0 0 0-.643-.938 3.302 3.292 0 0 0-1.128-.703c-.451-.187-.983-.281-1.599-.281H80.89v12.375zm1.615-.781v-5.406h1.943c.571 0 1.073.078 1.504.234a3.03 3.03 0 0 1 1.05.625c.282.25.49.547.627.89.133.344.204.704.204 1.079 0 .418-.075.789-.22 1.109a2.576 2.568 0 0 1-.596.813c-.25.218-.544.386-.877.5a3.524 3.514 0 0 1-1.065.156h-2.57zm0-6.188v-4.625h2.162c.459 0 .85.07 1.175.203.32.125.588.297.8.516.207.21.36.45.453.719.095.273.142.543.142.812 0 .344-.07.664-.204.953a2.303 2.296 0 0 1-.58.766c-.242.21-.517.371-.83.484a2.841 2.833 0 0 1-1.003.172h-2.115zm10.093-5.406v12.375h1.614v-5.453h.768c.333 0 .612.031.83.094.22.054.415.152.596.297.176.136.337.32.485.546.157.22.345.496.565.828l1.394 2.063c.177.273.35.523.518.75.176.219.364.406.564.563a2.521 2.514 0 0 0 1.6.531c.257 0 .468-.016.625-.047.164-.024.333-.078.501-.172v-.656c-.062.011-.125.023-.187.031h-.158c-.25 0-.469-.031-.658-.094a1.85 1.844 0 0 1-.532-.312 3.346 3.336 0 0 1-.486-.485 7.164 7.143 0 0 1-.47-.672 46.072 46.072 0 0 1-1.16-1.718c-.274-.438-.486-.77-.642-1a3.73 3.719 0 0 0-.391-.516 1.753 1.748 0 0 0-.361-.266l-.189-.093v-.063c.572-.039 1.066-.164 1.474-.375a3.041 3.032 0 0 0 1.003-.797 3.19 3.18 0 0 0 .564-1.03c.113-.376.172-.74.172-1.095 0-.312-.063-.656-.188-1.03a2.878 2.87 0 0 0-.642-1.063c-.294-.32-.702-.594-1.224-.813-.524-.219-1.182-.328-1.973-.328h-4.012zm1.614.781h1.786c.447 0 .85.07 1.207.203.364.125.678.305.94.532.259.23.458.507.596.828a2.659 2.651 0 0 1 .016 2 2.775 2.767 0 0 1-.565.89c-.25.262-.56.477-.924.641-.357.168-.768.25-1.238.25h-1.818v-5.344zm10.382-.781v7.61c0 .48.047 1.011.14 1.593.103.586.33 1.125.676 1.625.352.5.881.922 1.582 1.266.697.332 1.65.5 2.853.5.759 0 1.434-.121 2.02-.36a4.152 4.14 0 0 0 1.458-.968 4.11 4.11 0 0 0 .894-1.438c.207-.55.313-1.14.313-1.766v-8.062h-.784v7.484c0 .262-.008.524-.015.782a4.401 4.388 0 0 1-.11.797c-.054.261-.14.523-.266.78a3.21 3.2 0 0 1-.549.782c-.43.46-.908.773-1.442.938a5.396 5.38 0 0 1-1.66.25 3.46 3.45 0 0 1-1.318-.235 3.781 3.77 0 0 1-1.096-.687 3.246 3.236 0 0 1-.627-.703 3.448 3.438 0 0 1-.314-.704 3.806 3.795 0 0 1-.125-.687 14.643 14.6 0 0 1-.015-.719v-8.078h-1.615zm12.002 9.25c.02.5.149.96.39 1.375.241.418.57.773.989 1.063.427.28.924.507 1.49.671a6.929 6.929 0 0 0 1.864.235c.678 0 1.293-.086 1.849-.25a4.18 4.168 0 0 0 1.41-.703c.384-.313.682-.688.893-1.125.22-.438.33-.914.33-1.438 0-.738-.185-1.336-.549-1.797a4.629 4.615 0 0 0-1.379-1.172 9.474 9.446 0 0 0-1.786-.78 27.21 27.13 0 0 1-1.802-.673c-.545-.238-1-.508-1.365-.812-.368-.313-.548-.719-.548-1.219a1.763 1.758 0 0 1 .737-1.438c.239-.187.537-.335.893-.453a3.986 3.974 0 0 1 1.223-.172c.772 0 1.425.168 1.958.5.542.325.863.829.956 1.516h1.207a2.747 2.739 0 0 0-.486-1.156 3.41 3.4 0 0 0-.94-.89 4.033 4.021 0 0 0-1.285-.548 5.896 5.879 0 0 0-1.489-.187 5.48 5.48 0 0 0-1.567.219 4.102 4.09 0 0 0-1.285.609 2.993 2.984 0 0 0-.893 1.031c-.212.406-.314.875-.314 1.406 0 .7.173 1.262.518 1.688.352.418.799.766 1.332 1.047a11.94 11.94 0 0 0 1.755.734c.627.2 1.206.422 1.739.672.541.25.992.563 1.348.938.353.367.532.851.532 1.453 0 .773-.28 1.336-.845 1.687-.557.356-1.3.531-2.242.531-.744 0-1.34-.097-1.786-.296-.451-.196-.795-.43-1.034-.703a2.264 2.257 0 0 1-.47-.829 3.102 3.093 0 0 1-.14-.734h-1.208zm11.07 0c.02.5.15.96.391 1.375.241.418.57.773.988 1.063.428.28.925.507 1.49.671a6.928 6.928 0 0 0 1.864.235c.678 0 1.294-.086 1.85-.25a4.18 4.168 0 0 0 1.41-.703c.384-.313.682-.688.893-1.125.22-.438.33-.914.33-1.438 0-.738-.185-1.336-.55-1.797a4.629 4.615 0 0 0-1.378-1.172 9.474 9.446 0 0 0-1.786-.78 27.21 27.13 0 0 1-1.803-.673c-.544-.238-.999-.508-1.364-.812-.368-.313-.548-.719-.548-1.219a1.763 1.758 0 0 1 .737-1.438c.238-.187.536-.335.892-.453a3.986 3.974 0 0 1 1.224-.172c.771 0 1.425.168 1.958.5.541.325.862.829.956 1.516h1.207a2.747 2.739 0 0 0-.486-1.156 3.41 3.4 0 0 0-.94-.89 4.033 4.021 0 0 0-1.286-.548 5.896 5.879 0 0 0-1.488-.187 5.48 5.48 0 0 0-1.567.219 4.102 4.09 0 0 0-1.286.609 2.993 2.984 0 0 0-.892 1.031c-.212.406-.314.875-.314 1.406 0 .7.172 1.262.517 1.688.352.418.8.766 1.332 1.047a11.94 11.94 0 0 0 1.755.734c.627.2 1.207.422 1.74.672.541.25.991.563 1.348.938.353.367.532.851.532 1.453 0 .773-.28 1.336-.845 1.687-.557.356-1.301.531-2.242.531-.744 0-1.34-.097-1.786-.296-.452-.196-.796-.43-1.034-.703a2.264 2.257 0 0 1-.47-.829 3.102 3.093 0 0 1-.141-.734h-1.208zm12.543-9.25v12.375h8.008v-.969h-6.394v-5.187h5.486v-.813h-5.486v-4.422h6.394v-.984h-8.008zm10.664 12.375v-12.375h1.615v11.406h6.392v.969h-8.007zm9.189-3.125c.02.5.15.96.391 1.375.24.418.569.773.988 1.063.427.28.925.507 1.49.671a6.928 6.928 0 0 0 1.864.235c.678 0 1.294-.086 1.85-.25a4.18 4.168 0 0 0 1.41-.703c.384-.313.682-.688.892-1.125.22-.438.33-.914.33-1.438 0-.738-.184-1.336-.548-1.797a4.629 4.615 0 0 0-1.38-1.172 9.474 9.446 0 0 0-1.786-.78 27.21 27.13 0 0 1-1.802-.673c-.545-.238-1-.508-1.364-.812-.368-.313-.549-.719-.549-1.219a1.763 1.758 0 0 1 .737-1.438c.24-.187.537-.335.893-.453a3.986 3.974 0 0 1 1.224-.172c.77 0 1.425.168 1.957.5.542.325.863.829.956 1.516h1.208a2.747 2.739 0 0 0-.487-1.156 3.41 3.4 0 0 0-.94-.89 4.033 4.021 0 0 0-1.284-.548 5.896 5.879 0 0 0-1.49-.187 5.48 5.48 0 0 0-1.566.219 4.102 4.09 0 0 0-1.286.609 2.993 2.984 0 0 0-.893 1.031c-.211.406-.314.875-.314 1.406 0 .7.173 1.262.518 1.688.352.418.8.766 1.332 1.047.541.281 1.128.527 1.755.734.627.2 1.207.422 1.74.672.54.25.991.563 1.347.938.353.367.533.851.533 1.453 0 .773-.281 1.336-.846 1.687-.556.356-1.3.531-2.241.531-.745 0-1.34-.097-1.787-.296-.451-.196-.795-.43-1.034-.703a2.264 2.257 0 0 1-.47-.829 3.102 3.093 0 0 1-.14-.734h-1.208zm0 0" fill="#FFF"/></g></svg>