<svg xmlns="http://www.w3.org/2000/svg" width="375" height="375" version="1.0"><defs><clipPath id="a"><path d="M257.172 228H265v39.125h-7.828Zm0 0"/></clipPath><clipPath id="b"><path d="M358 230h3.105v2H358Zm0 0"/></clipPath><clipPath id="c"><path d="M274 61.719h2V65h-2Zm0 0"/></clipPath></defs><path fill="#FFF" d="M-37.5-37.5h450v450h-450z"/><path fill="#FFF" d="M-37.5-37.5h450v450h-450z"/><path fill="#CF6F64" d="M-37.5-37.5h450v450h-450z"/><path fill="#F4E8DC" d="M341.016 159.016c-6.543 2.605-13.172 5.136-19.625 8.007-11.579 5.172-23.075 10.547-34.567 15.907-1.41.66-2.52 1.937-3.945 2.632a29.354 29.354 0 0 1-4.547 1.352c-.531-4.387 2.582-5.754 4.8-6.918 4.563-2.375 9.5-4.008 14.29-5.969 5.723-2.34 11.344-4.828 17.18-7.004 5.832-2.175 11.414-3.921 17.136-5.843 2.989-1.012 5.973-1.973 8.973-2.961ZM305.414 93.422c-1.437 3.098-2.371 5.476-3.605 7.676-7.965 14.113-14.192 29.086-20.856 43.793-2.523 5.617-5.812 10.914-8.824 16.351-.367.473-.79.895-1.258 1.266-.305-6.653 26.727-60.89 34.543-69.086ZM349.14 189.582c-8.163.379-16.382.52-24.484 1.266-12.476 1.05-24.914 2.527-37.379 3.793-1.132.113-2.28.328-3.425.328-1.664 0-2.836-.719-2.735-2.528.086-1.656 1.258-2.062 2.695-2.113 5.446-.187 10.903-.48 16.383-.683 8.192-.301 16.383-.668 24.586-.82 8.203-.153 16.281 0 24.426 0ZM343.988 225.547c-2.004-.77-3.968-1.617-6-2.29-15.879-5.245-31.758-10.53-48.203-13.769a34.777 34.777 0 0 0-6.805-.328c-2.609 0-5.039-1.457-5.039-3.137 0-1.683 2.141-2.91 4.903-2.351 3.363.668 6.613 1.91 9.93 2.883 5.808 1.707 11.68 3.199 17.402 5.132 6.554 2.215 12.98 4.833 19.472 7.223 3.778 1.39 7.559 2.656 11.34 4.059a30.419 30.419 0 0 1 3.352 1.668ZM322.172 249.36c-5.242-4.02-10.356-8.192-15.738-12.024-8.215-5.844-16.508-11.598-24.977-17.063-2.7-1.742-6.023-2.527-9.125-3.59-2.055-.706-3.152-2.046-2.61-3.656.544-1.605 2.13-2.007 4.008-.972 3.641 1.984 7.16 4.222 10.711 6.324a59.448 59.448 0 0 1 5.508 3.402c6.516 5.059 12.942 10.117 19.406 15.176 2.825 2.211 5.711 4.375 8.434 6.727 1.777 1.543 3.277 3.402 4.902 5.058ZM279.262 170.473c1.324-2.817 3.781-4.575 6.3-6.32 8.536-5.895 17.04-11.852 25.786-17.415a194.465 194.465 0 0 1 21.636-11.785c-.93.668-1.812 1.414-2.785 2.024-14.465 9.039-28.656 18.46-41.586 29.601a40.627 40.627 0 0 1-5.785 3.895c-.98.43-2 .71-3.062.847Zm0 0"/><g clip-path="url(#a)"><path fill="#F4E8DC" d="M258.836 228.875c.398-.008.785.066 1.152.219a2.91 2.91 0 0 1 1.797 2.816c1.059 11.05 2.11 22.102 3.149 33.145a2.638 2.638 0 0 1-.997 2.164 28.008 28.008 0 0 1-1.007-3.352c-1.348-8.12-2.684-16.25-4.082-24.355-.29-1.696-.871-3.34-1.16-5.059-.313-1.95-.833-4.012 1.148-5.578Zm0 0"/></g><path fill="#F4E8DC" d="M266.496 111.469c.324.664.512 1.363.567 2.097-1.497 13.43-3.075 26.899-4.649 40.356a6.876 6.876 0 0 1-.871 1.617c-.602-1.023-1.36-1.73-1.422-2.527a28.674 28.674 0 0 1-.09-6.895c1.742-10.937 3.645-21.879 5.57-32.804.239-.66.57-1.266.997-1.82ZM296.906 256.773c-5.734-6.035-11.344-12.117-17.226-18.058-2.926-2.985-6.176-5.64-9.2-8.524-1.714-1.644-3.843-3.074-4.148-6.086 3.48-.148 5.621 2.278 7.273 4.2 5.192 6.07 11.668 11.09 15.387 18.453.871 1.719 2.735 2.933 4.094 4.41 1.363 1.48 2.976 3.352 4.465 5.059Zm0 0"/><path fill="#F4E8DC" d="M266.598 111.492c.152-2.668.289-5.347.464-8.547 1.415 2.985 1.262 4.68-.566 8.524ZM274.45 64.754c.327 3.855.327 3.855-2.079 8.105.73-2.695 1.45-5.386 2.18-8.082ZM270.945 86.3c-.199.977-.414 1.938-.617 2.91l-.68-.151.72-2.883Zm0 0"/><g clip-path="url(#b)"><path fill="#F4E8DC" d="m360.926 231.758-2.031-.582.152-.606 2.043.532Zm0 0"/></g><g clip-path="url(#c)"><path fill="#F4E8DC" d="m274.55 64.777.266-3.058.793.176c-.39.949-.78 1.898-1.16 2.859Zm0 0"/></g><path d="M134.747 170.661c-.086-.953-.868-1.559-1.817-1.473-6.234.782-12.125 1.907-17.578 3.465 2.078-9.175 4.07-17.75 5.8-24.847 2.946-12.297 2.427-18.88-1.73-20.176-5.023-1.559-11.863 7.36-14.546 14.46-2.946 8.052-1.301 14.372 4.414 16.884.867.433 1.82 0 2.164-.782.433-.863 0-1.816-.778-2.25-5.543-2.425-3.984-9.004-2.597-12.726 2.77-7.45 8.398-12.989 10.39-12.383.868.258 2.426 3.723-.605 16.191a2718.99 2718.99 0 0 0-6.235 26.754c-7.878 2.598-14.894 6.149-20.953 10.567-9.437 6.84-16.453 15.757-20.695 26.32-7.707 18.96-4.762 39.398 2.426 48.14 3.375 4.07 7.273 6.15 11.254 6.15.781 0 1.644-.087 2.511-.259 6.063-1.472 10.739-8.402 13.075-19.398 1.644-7.617 8.66-40.176 15.238-69.008 5.543-1.645 11.777-2.945 18.789-3.809.953-.086 1.645-.867 1.473-1.82Zm-38.703 73.945c-2.079 9.7-5.887 15.672-10.739 16.883-3.375.781-7.097-.949-10.3-4.762-8.313-10.128-7.45-31.167-1.993-44.851 4.934-12.035 15.325-26.406 37.75-34.375-6.406 28.316-13.16 59.66-14.718 67.105ZM174.836 191.962c-.777-.434-1.816-.172-2.25.605-8.227 13.164-15.152 19.051-16.625 18.532 0 0-1.73-.954-.086-10.91.605-3.38.863-5.282-.781-5.977-1.559-.606-2.512.695-4.328 3.293-1.473 2.078-3.465 4.847-5.63 6.754-.257.172-1.21 1.039-1.644.691-1.3-1.039-1.558-6.668 1.473-11.863.52-.777.172-1.817-.606-2.336-.78-.434-1.82-.176-2.254.605-3.46 6.063-3.808 13.594-.777 16.106.777.691 2.942 1.906 5.973-.606 1.992-1.734 3.722-3.984 5.11-5.89-1.212 8.054-.52 12.125 2.339 13.25.43.172.863.172 1.21.172 6.58 0 17.231-16.625 19.395-20.086.52-.782.262-1.82-.52-2.34ZM217.872 191.356a1.632 1.632 0 0 0-2.254.692c-2.078 3.55-7.532 13.164-10.649 12.816-.605-.086-2.336-.953-4.07-7.015-1.211-4.243-2.856-8.223-6.059-8.399-2.34-.172-4.937 1.645-8.922 9.094 1.04-3.723 2.168-7.45 3.032-10.477.347-1.125.605-2.078.867-3.03.258-.868-.262-1.821-1.125-2.079-.867-.262-1.82.258-2.078 1.21-.262.868-.52 1.907-.867 2.946-2.25 7.707-5.63 19.395-6.493 26.496-.086.778.434 1.559 1.211 1.73.172.087.262.087.434.087.691 0 1.297-.434 1.559-1.04 8.136-20.261 11.43-21.644 12.207-21.644.175 0 1.386.344 3.03 6.059 1.731 5.976 3.985 9.008 6.927 9.351 4.418.52 8.398-4.933 13.855-14.46.52-.864.172-1.817-.605-2.337ZM254.93 191.356c-.778-.52-1.817-.347-2.336.434-6.496 9.09-11.778 14.805-16.973 18.527-2.598 1.82-5.11 2.164-6.754.953-1.039-.777-4.242-4.242-.52-16.363 8.399-6.926 12.989-13.508 11.778-16.972a2.836 2.836 0 0 0-2.598-1.73c-3.465.085-8.746 6.062-12.21 17.23-4.243 13.765-.778 18.789 1.644 20.52 1.215.952 2.598 1.386 4.156 1.386 1.992 0 4.246-.781 6.41-2.34 5.54-3.98 10.996-9.867 17.75-19.309.52-.777.344-1.816-.347-2.336Zm-18.098-11.515c-.344 1.386-1.816 4.156-5.887 8.312 2.25-5.023 4.676-7.445 5.887-8.312ZM141.402 244.273h4.438c.78 0 1.44-.102 1.984-.313.539-.207.976-.472 1.312-.796.332-.332.57-.707.72-1.125.144-.414.218-.836.218-1.266 0-.664-.149-1.195-.438-1.594a2.828 2.828 0 0 0-1.03-.922 3.96 3.96 0 0 0-1.235-.437 9.445 9.445 0 0 0-1.032-.125v-.063c.415 0 .805-.078 1.172-.234.364-.164.68-.375.953-.625.282-.25.504-.54.672-.875.164-.344.25-.703.25-1.078 0-.332-.074-.664-.218-1a2.698 2.698 0 0 0-.641-.938 3.292 3.292 0 0 0-1.125-.703c-.45-.187-.98-.281-1.594-.281h-4.406Zm1.61-.781v-5.406h1.937c.57 0 1.07.078 1.5.234.426.156.773.367 1.047.625.281.25.488.547.625.89.133.344.203.704.203 1.079 0 .418-.074.789-.219 1.109a2.568 2.568 0 0 1-.594.813c-.25.218-.543.386-.875.5a3.514 3.514 0 0 1-1.062.156Zm0-6.188v-4.625h2.156c.457 0 .847.07 1.171.203.32.125.586.297.797.516.207.21.36.45.453.719.094.273.141.543.141.812 0 .344-.07.664-.203.953a2.296 2.296 0 0 1-.578.766c-.242.21-.516.371-.828.484a2.833 2.833 0 0 1-1 .172ZM153.075 231.898v12.375h1.61v-5.453h.765c.332 0 .61.031.828.094.219.054.414.152.594.297.176.136.336.32.484.546.156.22.344.496.563.828l1.39 2.063c.176.273.348.523.516.75.176.219.363.406.563.563a2.514 2.514 0 0 0 1.594.531c.257 0 .468-.016.624-.047.164-.024.332-.078.5-.172v-.656c-.062.011-.125.023-.187.031h-.157c-.25 0-.468-.031-.656-.094a1.844 1.844 0 0 1-.531-.312 3.336 3.336 0 0 1-.484-.485 7.143 7.143 0 0 1-.47-.672c-.5-.718-.886-1.289-1.155-1.718-.274-.438-.485-.77-.641-1a3.719 3.719 0 0 0-.39-.516 1.748 1.748 0 0 0-.36-.266l-.188-.093v-.063c.57-.039 1.063-.164 1.47-.375a3.032 3.032 0 0 0 1-.797 3.18 3.18 0 0 0 .562-1.03c.113-.376.172-.74.172-1.095 0-.312-.063-.656-.188-1.03a2.87 2.87 0 0 0-.64-1.063c-.293-.32-.7-.594-1.22-.813-.523-.219-1.179-.328-1.968-.328Zm1.61.781h1.78c.446 0 .848.07 1.204.203.363.125.676.305.937.532.258.23.457.507.594.828a2.651 2.651 0 0 1 .016 2 2.767 2.767 0 0 1-.563.89c-.25.262-.558.477-.922.641-.355.168-.765.25-1.234.25h-1.813ZM165.036 231.898v7.61c0 .48.047 1.011.14 1.593.102.586.329 1.125.673 1.625.351.5.879.922 1.578 1.266.695.332 1.644.5 2.844.5.757 0 1.43-.121 2.015-.36a4.14 4.14 0 0 0 1.453-.968c.395-.414.692-.895.891-1.438.207-.55.313-1.14.313-1.766v-8.062h-.782v7.484c0 .262-.008.524-.015.782a4.388 4.388 0 0 1-.11.797c-.054.261-.14.523-.265.78a3.2 3.2 0 0 1-.547.782c-.43.46-.906.773-1.438.938a5.38 5.38 0 0 1-1.656.25 3.45 3.45 0 0 1-1.313-.235 3.77 3.77 0 0 1-1.093-.687 3.236 3.236 0 0 1-.625-.703 3.438 3.438 0 0 1-.313-.704 3.795 3.795 0 0 1-.125-.687 14.6 14.6 0 0 1-.015-.719v-8.078ZM177.002 241.148c.02.5.149.96.39 1.375.24.418.567.773.985 1.063.426.28.922.507 1.485.671.562.157 1.18.235 1.859.235.676 0 1.29-.086 1.844-.25a4.168 4.168 0 0 0 1.406-.703c.383-.313.68-.688.89-1.125.22-.438.329-.914.329-1.438 0-.738-.184-1.336-.547-1.797a4.615 4.615 0 0 0-1.375-1.172 9.446 9.446 0 0 0-1.781-.78 27.13 27.13 0 0 1-1.797-.673c-.543-.238-.996-.508-1.36-.812-.367-.313-.547-.719-.547-1.219a1.758 1.758 0 0 1 .735-1.438c.238-.187.535-.335.89-.453a3.974 3.974 0 0 1 1.22-.172c.769 0 1.421.168 1.952.5.54.325.86.829.953 1.516h1.204a2.739 2.739 0 0 0-.485-1.156 3.4 3.4 0 0 0-.937-.89 4.021 4.021 0 0 0-1.281-.548 5.879 5.879 0 0 0-1.485-.187c-.555 0-1.074.074-1.562.219a4.09 4.09 0 0 0-1.282.609 2.984 2.984 0 0 0-.89 1.031c-.211.406-.313.875-.313 1.406 0 .7.172 1.262.516 1.688.351.418.797.766 1.328 1.047.54.281 1.125.527 1.75.734.625.2 1.203.422 1.734.672.54.25.989.563 1.344.938.352.367.531.851.531 1.453 0 .773-.28 1.336-.843 1.687-.555.356-1.297.531-2.235.531-.742 0-1.336-.097-1.781-.296-.45-.196-.793-.43-1.031-.703a2.257 2.257 0 0 1-.469-.829 3.093 3.093 0 0 1-.14-.734ZM188.04 241.148c.02.5.149.96.39 1.375.24.418.567.773.985 1.063.426.28.922.507 1.485.671.562.157 1.18.235 1.859.235.676 0 1.29-.086 1.844-.25a4.168 4.168 0 0 0 1.406-.703c.383-.313.68-.688.89-1.125.22-.438.329-.914.329-1.438 0-.738-.184-1.336-.547-1.797a4.615 4.615 0 0 0-1.375-1.172 9.446 9.446 0 0 0-1.781-.78 27.13 27.13 0 0 1-1.797-.673c-.543-.238-.996-.508-1.36-.812-.367-.313-.547-.719-.547-1.219a1.758 1.758 0 0 1 .735-1.438c.238-.187.535-.335.89-.453a3.974 3.974 0 0 1 1.22-.172c.769 0 1.421.168 1.952.5.54.325.86.829.953 1.516h1.204a2.739 2.739 0 0 0-.485-1.156 3.4 3.4 0 0 0-.937-.89 4.021 4.021 0 0 0-1.282-.548 5.879 5.879 0 0 0-1.484-.187c-.555 0-1.074.074-1.562.219a4.09 4.09 0 0 0-1.282.609 2.984 2.984 0 0 0-.89 1.031c-.211.406-.313.875-.313 1.406 0 .7.172 1.262.516 1.688.351.418.797.766 1.328 1.047.54.281 1.125.527 1.75.734.625.2 1.203.422 1.734.672.54.25.989.563 1.344.938.352.367.531.851.531 1.453 0 .773-.28 1.336-.843 1.687-.555.356-1.297.531-2.235.531-.742 0-1.336-.097-1.781-.296-.45-.196-.793-.43-1.031-.703a2.257 2.257 0 0 1-.469-.829 3.093 3.093 0 0 1-.14-.734ZM200.546 231.898v12.375h7.984v-.969h-6.375v-5.187h5.47v-.813h-5.47v-4.422h6.375v-.984ZM211.178 244.273v-12.375h1.61v11.406h6.374v.969ZM220.34 241.148c.02.5.149.96.39 1.375.24.418.567.773.985 1.063.426.28.922.507 1.485.671.562.157 1.18.235 1.859.235.676 0 1.29-.086 1.844-.25a4.168 4.168 0 0 0 1.406-.703c.383-.313.68-.688.89-1.125.22-.438.329-.914.329-1.438 0-.738-.184-1.336-.547-1.797a4.615 4.615 0 0 0-1.375-1.172 9.446 9.446 0 0 0-1.781-.78 27.13 27.13 0 0 1-1.797-.673c-.543-.238-.996-.508-1.36-.812-.367-.313-.547-.719-.547-1.219a1.758 1.758 0 0 1 .735-1.438c.238-.187.535-.335.89-.453a3.974 3.974 0 0 1 1.22-.172c.769 0 1.421.168 1.952.5.54.325.86.829.953 1.516h1.204a2.739 2.739 0 0 0-.485-1.156 3.4 3.4 0 0 0-.937-.89 4.021 4.021 0 0 0-1.281-.548 5.879 5.879 0 0 0-1.485-.187c-.555 0-1.074.074-1.562.219a4.09 4.09 0 0 0-1.282.609 2.984 2.984 0 0 0-.89 1.031c-.211.406-.313.875-.313 1.406 0 .7.172 1.262.516 1.688.351.418.797.766 1.328 1.047.54.281 1.125.527 1.75.734.625.2 1.203.422 1.734.672.54.25.989.563 1.344.938.352.367.531.851.531 1.453 0 .773-.28 1.336-.843 1.687-.555.356-1.297.531-2.235.531-.742 0-1.336-.097-1.781-.296-.45-.196-.793-.43-1.031-.703a2.257 2.257 0 0 1-.469-.829 3.093 3.093 0 0 1-.14-.734Zm0 0" fill="#FFF"/></svg>