<svg width="154" height="167" xmlns="http://www.w3.org/2000/svg" version="1.0"><path stroke="null" d="M0 0h154.876v166.89H0V0z" fill="#CF6F64"/><path stroke="null" fill="#FFF" d="M111.021 59.971c-6.252.782-12.16 1.907-17.63 3.465 2.085-9.175 4.082-17.75 5.818-24.847 2.954-12.297 2.434-18.88-1.736-20.176-5.037-1.559-11.898 7.36-14.589 14.46-2.954 8.052-1.304 14.372 4.427 16.884.87.433 1.826 0 2.17-.782.435-.863 0-1.816-.78-2.25C83.143 44.3 84.707 37.721 86.098 34c2.778-7.45 8.423-12.989 10.42-12.383.871.258 2.434 3.723-.606 16.191a2727.043 2718.99 0 0 0-6.254 26.754c-7.901 2.598-14.938 6.15-21.015 10.567-9.465 6.84-16.501 15.757-20.756 26.32-7.73 18.96-4.776 39.398 2.433 48.14 3.385 4.07 7.295 6.15 11.288 6.15.783 0 1.648-.087 2.518-.259 6.08-1.472 10.77-8.402 13.114-19.398 1.649-7.617 8.685-40.176 15.283-69.008 5.56-1.645 11.812-2.945 18.845-3.809.955-.086 1.65-.867 1.477-1.82l-1.823-1.473zM74.026 135.39c-2.085 9.7-5.904 15.672-10.77 16.883-3.386.781-7.119-.949-10.331-4.762-8.338-10.128-7.472-31.167-1.999-44.85 4.949-12.036 15.37-26.407 37.862-34.376-6.425 28.316-13.2 59.66-14.762 67.105z"/></svg>